<svg width="40" height="40" viewBox="0 0 40 40" fill="none" xmlns="http://www.w3.org/2000/svg">
<path d="M8.33333 35C7.41667 35 6.63222 34.6739 5.98 34.0217C5.32778 33.3694 5.00111 32.5844 5 31.6667V8.33333C5 7.41667 5.32667 6.63222 5.98 5.98C6.63333 5.32778 7.41778 5.00111 8.33333 5H31.6667C32.5833 5 33.3683 5.32667 34.0217 5.98C34.675 6.63333 35.0011 7.41778 35 8.33333V31.6667C35 32.5833 34.6739 33.3683 34.0217 34.0217C33.3694 34.675 32.5844 35.0011 31.6667 35H8.33333ZM8.33333 13.875H31.6667V8.33333H8.33333V13.875ZM8.33333 22.7917H31.6667V17.2083H8.33333V22.7917ZM8.33333 31.6667H31.6667V26.125H8.33333V31.6667ZM11.6667 12.75C11.1944 12.75 10.7989 12.59 10.48 12.27C10.1611 11.95 10.0011 11.5544 10 11.0833C9.99889 10.6122 10.1589 10.2167 10.48 9.89667C10.8011 9.57667 11.1967 9.41667 11.6667 9.41667C12.1367 9.41667 12.5328 9.57667 12.855 9.89667C13.1772 10.2167 13.3367 10.6122 13.3333 11.0833C13.33 11.5544 13.17 11.9506 12.8533 12.2717C12.5367 12.5928 12.1411 12.7522 11.6667 12.75ZM11.6667 21.6667C11.1944 21.6667 10.7989 21.5067 10.48 21.1867C10.1611 20.8667 10.0011 20.4711 10 20C9.99889 19.5289 10.1589 19.1333 10.48 18.8133C10.8011 18.4933 11.1967 18.3333 11.6667 18.3333C12.1367 18.3333 12.5328 18.4933 12.855 18.8133C13.1772 19.1333 13.3367 19.5289 13.3333 20C13.33 20.4711 13.17 20.8672 12.8533 21.1883C12.5367 21.5094 12.1411 21.6689 11.6667 21.6667ZM11.6667 30.5833C11.1944 30.5833 10.7989 30.4233 10.48 30.1033C10.1611 29.7833 10.0011 29.3878 10 28.9167C9.99889 28.4456 10.1589 28.05 10.48 27.73C10.8011 27.41 11.1967 27.25 11.6667 27.25C12.1367 27.25 12.5328 27.41 12.855 27.73C13.1772 28.05 13.3367 28.4456 13.3333 28.9167C13.33 29.3878 13.17 29.7839 12.8533 30.105C12.5367 30.4261 12.1411 30.5856 11.6667 30.5833Z" fill="white"/>
</svg>
