<svg width="40" height="40" viewBox="0 0 40 40" fill="none" xmlns="http://www.w3.org/2000/svg">
<path d="M23.3334 11.6667V8.33334H36.6667V11.6667H23.3334ZM23.3334 18.3333V15H36.6667V18.3333H23.3334ZM23.3334 25V21.6667H36.6667V25H23.3334ZM13.3334 23.3333C11.9445 23.3333 10.7639 22.8472 9.79171 21.875C8.81949 20.9028 8.33338 19.7222 8.33338 18.3333C8.33338 16.9444 8.81949 15.7639 9.79171 14.7917C10.7639 13.8194 11.9445 13.3333 13.3334 13.3333C14.7223 13.3333 15.9028 13.8194 16.875 14.7917C17.8473 15.7639 18.3334 16.9444 18.3334 18.3333C18.3334 19.7222 17.8473 20.9028 16.875 21.875C15.9028 22.8472 14.7223 23.3333 13.3334 23.3333ZM3.33337 33.3333V30.1667C3.33337 29.5833 3.47226 29.0278 3.75004 28.5C4.02782 27.9722 4.41671 27.5556 4.91671 27.25C6.16671 26.5 7.49338 25.9378 8.89671 25.5633C10.3 25.1889 11.7789 25.0011 13.3334 25C14.8878 24.9989 16.3673 25.1867 17.7717 25.5633C19.1762 25.94 20.5023 26.5022 21.75 27.25C22.25 27.5556 22.6389 27.9722 22.9167 28.5C23.1945 29.0278 23.3334 29.5833 23.3334 30.1667V33.3333H3.33337ZM6.91671 30H19.75C18.7778 29.4444 17.75 29.0278 16.6667 28.75C15.5834 28.4722 14.4723 28.3333 13.3334 28.3333C12.1945 28.3333 11.0834 28.4722 10 28.75C8.91671 29.0278 7.88893 29.4444 6.91671 30ZM13.3334 20C13.8056 20 14.2017 19.84 14.5217 19.52C14.8417 19.2 15.0012 18.8044 15 18.3333C14.9989 17.8622 14.8389 17.4667 14.52 17.1467C14.2012 16.8267 13.8056 16.6667 13.3334 16.6667C12.8612 16.6667 12.4656 16.8267 12.1467 17.1467C11.8278 17.4667 11.6678 17.8622 11.6667 18.3333C11.6656 18.8044 11.8256 19.2006 12.1467 19.5217C12.4678 19.8428 12.8634 20.0022 13.3334 20Z" fill="white"/>
</svg>
