<svg width="40" height="40" viewBox="0 0 40 40" fill="none" xmlns="http://www.w3.org/2000/svg">
<path d="M8.33334 35C7.41667 35 6.63223 34.6739 5.98001 34.0217C5.32778 33.3694 5.00112 32.5844 5.00001 31.6667V26.6667C5.00001 26.1944 5.16001 25.7989 5.48001 25.48C5.80001 25.1611 6.19556 25.0011 6.66667 25C7.13778 24.9989 7.53389 25.1589 7.85501 25.48C8.17612 25.8011 8.33556 26.1967 8.33334 26.6667V31.6667H31.6667V8.33333H8.33334V13.3333C8.33334 13.8056 8.17334 14.2017 7.85334 14.5217C7.53334 14.8417 7.13778 15.0011 6.66667 15C6.19556 14.9989 5.80001 14.8389 5.48001 14.52C5.16001 14.2011 5.00001 13.8056 5.00001 13.3333V8.33333C5.00001 7.41667 5.32667 6.63222 5.98001 5.98C6.63334 5.32778 7.41778 5.00111 8.33334 5H31.6667C32.5833 5 33.3683 5.32667 34.0217 5.98C34.675 6.63333 35.0011 7.41778 35 8.33333V31.6667C35 32.5833 34.6739 33.3683 34.0217 34.0217C33.3695 34.675 32.5845 35.0011 31.6667 35H8.33334ZM19.4167 21.6667H6.66667C6.19445 21.6667 5.79889 21.5067 5.48001 21.1867C5.16112 20.8667 5.00112 20.4711 5.00001 20C4.99889 19.5289 5.15889 19.1333 5.48001 18.8133C5.80112 18.4933 6.19667 18.3333 6.66667 18.3333H19.4167L16.3333 15.25C16 14.9167 15.84 14.5278 15.8533 14.0833C15.8667 13.6389 16.0267 13.25 16.3333 12.9167C16.6667 12.5833 17.0628 12.41 17.5217 12.3967C17.9806 12.3833 18.3761 12.5428 18.7083 12.875L24.6667 18.8333C24.8333 19 24.9517 19.1806 25.0217 19.375C25.0917 19.5694 25.1261 19.7778 25.125 20C25.1239 20.2222 25.0895 20.4306 25.0217 20.625C24.9539 20.8194 24.8356 21 24.6667 21.1667L18.7083 27.125C18.375 27.4583 17.9794 27.6183 17.5217 27.605C17.0639 27.5917 16.6678 27.4178 16.3333 27.0833C16.0278 26.75 15.8678 26.3611 15.8533 25.9167C15.8389 25.4722 15.9989 25.0833 16.3333 24.75L19.4167 21.6667Z" fill="white"/>
</svg>
