<svg width="72" height="44" viewBox="0 0 72 44" fill="none" xmlns="http://www.w3.org/2000/svg">
<path d="M22 44V1.41935L24.927 0H35.3925C39.5897 0 42.9954 1.37204 45.6095 4.11613C48.0947 6.72774 49.3373 10.0869 49.3373 14.1936C49.3373 18.3191 48.0947 21.6783 45.6095 24.271C44.1368 25.8039 42.4155 26.911 40.4458 27.5923L50 41.6439L45.14 44H44.8639L34.2327 28.3871H27.5227V41.4452L22.2761 44H22ZM27.5227 23.2774H35.3925C37.8041 23.2774 39.9487 22.3028 41.8264 20.3535C43.1519 18.972 43.8146 16.9187 43.8146 14.1936C43.8146 11.6576 43.1519 9.6043 41.8264 8.03355C40.188 6.0843 38.0434 5.10968 35.3925 5.10968H27.5227V23.2774Z" fill="white"/>
</svg>
