<svg width="173" height="42" viewBox="0 0 173 42" fill="none" xmlns="http://www.w3.org/2000/svg">
<path d="M0.078125 41.0156V2.92969L2.76953 1.66016H12.3926C16.252 1.66016 19.3835 2.88737 21.7871 5.3418C24.0723 7.67773 25.2148 10.6823 25.2148 14.3555C25.2148 18.0456 24.0723 21.0501 21.7871 23.3691C20.4329 24.7402 18.8503 25.7305 17.0391 26.3398L25.8242 38.9082L21.3555 41.0156H21.1016L11.3262 27.0508H5.15625V38.7305L0.332031 41.0156H0.078125ZM5.15625 22.4805H12.3926C14.61 22.4805 16.582 21.6087 18.3086 19.8652C19.5273 18.6296 20.1367 16.793 20.1367 14.3555C20.1367 12.0872 19.5273 10.2507 18.3086 8.8457C16.8021 7.10221 14.8301 6.23047 12.3926 6.23047H5.15625V22.4805Z" fill="white"/>
<path d="M53.2461 28.752V30.3516C53.2461 33.1445 52.1966 35.5736 50.0977 37.6387C48.1341 39.5514 45.6712 40.5078 42.709 40.5078C39.7806 40.5078 37.3177 39.5514 35.3203 37.6387C33.2214 35.6074 32.1719 33.1784 32.1719 30.3516V21.7188C32.1719 18.9258 33.2214 16.4967 35.3203 14.4316C37.2839 12.5189 39.7467 11.5625 42.709 11.5625C45.5866 11.5625 48.0495 12.5189 50.0977 14.4316C52.1966 16.3952 53.2461 18.5788 53.2461 20.9824V21.0332L37.7578 33.1699C38.0117 33.7454 38.3672 34.2279 38.8242 34.6172C39.8906 35.5312 41.1855 35.9883 42.709 35.9883C44.2324 35.9883 45.5189 35.5312 46.5684 34.6172C47.6348 33.7031 48.168 32.5098 48.168 31.0371L52.9922 28.752H53.2461ZM37.25 28.041L47.8633 19.4336C47.5924 18.6042 47.1693 17.944 46.5938 17.4531C45.5273 16.5391 44.2324 16.082 42.709 16.082C41.1855 16.082 39.8906 16.5391 38.8242 17.4531C37.7747 18.3503 37.25 19.7721 37.25 21.7188V28.041Z" fill="white"/>
<path d="M81.9375 28.752V30.3516C81.9375 33.1445 80.888 35.5736 78.7891 37.6387C76.8255 39.5514 74.3626 40.5078 71.4004 40.5078C68.472 40.5078 66.0091 39.5514 64.0117 37.6387C61.9128 35.6074 60.8633 33.1784 60.8633 30.3516V21.7188C60.8633 18.9258 61.9128 16.4967 64.0117 14.4316C65.9753 12.5189 68.4382 11.5625 71.4004 11.5625C74.278 11.5625 76.7409 12.5189 78.7891 14.4316C80.888 16.3952 81.9375 18.5788 81.9375 20.9824V21.0332L66.4492 33.1699C66.7031 33.7454 67.0586 34.2279 67.5156 34.6172C68.582 35.5312 69.877 35.9883 71.4004 35.9883C72.9238 35.9883 74.2103 35.5312 75.2598 34.6172C76.3262 33.7031 76.8594 32.5098 76.8594 31.0371L81.6836 28.752H81.9375ZM65.9414 28.041L76.5547 19.4336C76.2839 18.6042 75.8607 17.944 75.2852 17.4531C74.2188 16.5391 72.9238 16.082 71.4004 16.082C69.877 16.082 68.582 16.5391 67.5156 17.4531C66.4661 18.3503 65.9414 19.7721 65.9414 21.7188V28.041Z" fill="white"/>
<path d="M90.8242 40V2.92969L95.6484 0.644531H95.9023V35.3789H113.295V35.6328L111.238 40H90.8242Z" fill="white"/>
<path d="M116.342 6.45898C115.749 5.84961 115.453 5.12174 115.453 4.27539C115.453 3.41211 115.749 2.67578 116.342 2.06641C116.934 1.45703 117.654 1.15234 118.5 1.15234C119.346 1.15234 120.066 1.45703 120.658 2.06641C121.251 2.67578 121.547 3.41211 121.547 4.27539C121.547 5.12174 121.251 5.84961 120.658 6.45898C120.066 7.06836 119.346 7.37305 118.5 7.37305C117.654 7.37305 116.934 7.06836 116.342 6.45898ZM115.961 41.0156V13.3398L120.785 11.0547H121.039V38.7305L116.215 41.0156H115.961Z" fill="white"/>
<path d="M129.164 31.0371L133.988 28.752H134.242V30.7832C134.242 32.679 134.792 34.1178 135.893 35.0996C136.942 36.0306 138.212 36.4961 139.701 36.4961C141.428 36.4961 142.773 35.946 143.738 34.8457C144.754 33.6947 145.262 32.4421 145.262 31.0879C145.262 29.6322 144.72 28.4811 143.637 27.6348C142.706 26.9069 141.385 26.543 139.676 26.543C136.663 26.543 134.285 25.8828 132.541 24.5625C131.001 23.4115 130.23 21.6257 130.23 19.2051C130.23 16.8522 131.305 14.9056 133.455 13.3652C135.131 12.1634 137.213 11.5625 139.701 11.5625C142.088 11.5625 144.161 12.3073 145.922 13.7969C147.276 14.9648 148.114 16.319 148.436 17.8594L143.611 20.1445H143.357V19.4082C143.357 18.528 143.104 17.7747 142.596 17.1484C141.783 16.099 140.624 15.5742 139.117 15.5742C137.915 15.5742 136.934 15.9551 136.172 16.7168C135.427 17.4616 135.055 18.291 135.055 19.2051C135.055 20.2884 135.512 21.1517 136.426 21.7949C136.934 22.1504 138.017 22.3281 139.676 22.3281C143.112 22.3281 145.693 23.1152 147.42 24.6895C149.299 26.3991 150.238 28.625 150.238 31.3672C150.238 33.5677 149.265 35.6667 147.318 37.6641C145.473 39.5599 142.934 40.5078 139.701 40.5078C136.773 40.5078 134.31 39.6953 132.312 38.0703C130.214 36.3607 129.164 34.0163 129.164 31.0371Z" fill="white"/>
<path d="M160.445 41.0156V16.6914H153.92V16.4375L155.977 12.0703H160.445V2.92969L165.27 0.644531H165.523V12.0703H172.049V12.3242L169.992 16.6914H165.523V38.7305L160.699 41.0156H160.445Z" fill="white"/>
</svg>
